:version 1.10
:name ASF
:units
  mass 1
  length 1
  angle deg
:documentation
  ASF file generated by Kaydara
:root
  axis xyz
  order  tx ty tz rx ry rz
  position 0 0 0
  orientation 0 0 0
:bonedata
  begin
    id 1
    name RightUpLegDummy
    direction -0.718183 -0.695806 0.00816078
    length 4.904
    axis 0 0 0 xyz
  end
  begin
    id 2
    name RightUpLeg
    direction 3.53373e-006 -0.995788 0.0916898
    length 17.4976
    axis -3.49089 -0.000906625 0.000286804 xyz
    dof rx ry rz
  end
  begin
    id 3
    name RightLeg
    direction 0.00371092 -0.995096 -0.0988419
    length 16.5821
    axis 3.68512 0.0193738 -0.131023 xyz
    dof rx ry rz
  end
  begin
    id 4
    name RightFoot
    direction 0.00079151 -0.46099 0.887405
    length 3.77069
    axis 4.81691e-005 -0.120479 -0.188788 xyz
    dof rx ry rz
  end
  begin
    id 5
    name RightToes
    direction 0 0 0
    length 0
    axis 0 0 0 xyz
    dof rx ry rz
  end
  begin
    id 6
    name SpineDummy
    direction 8.3039e-015 1 4.57515e-016
    length 4.6813
    axis 0 0 0 xyz
  end
  begin
    id 7
    name Spine
    direction -3.15643e-008 0.999988 0.00495137
    length 10.1015
    axis -0.001389 0.000121418 2.40972e-006 xyz
    dof rx ry rz
  end
  begin
    id 8
    name Spine1
    direction 0 0 0
    length 0
    axis -0.001389 0.000121451 1.30017e-006 xyz
    dof rx ry rz
  end
  begin
    id 9
    name HEadDummy
    direction -1.99912e-008 0.999999 0.00127422
    length 3.43865
    axis -0.001389 0.000121451 1.30017e-006 xyz
  end
  begin
    id 10
    name HEad
    direction 0 0 0
    length 0
    axis 0 0 0 xyz
    dof rx ry rz
  end
  begin
    id 11
    name LeftShoulder1Dummy
    direction 0.998891 -0.0402509 -0.0244456
    length 3.5433
    axis -0.001389 0.000121451 1.30017e-006 xyz
  end
  begin
    id 12
    name LeftShoulder1
    direction 0.99951 -0.000327763 0.0313091
    length 4.05031
    axis -0.001389 0.000121451 1.30017e-006 xyz
    dof rx ry rz
  end
  begin
    id 13
    name LeftArm
    direction 0.998561 -0.00100056 -0.0536182
    length 10.3537
    axis -23.1894 0.134784 0.967509 xyz
    dof rx ry rz
  end
  begin
    id 14
    name LeftForeArm
    direction 0.998903 0.00866432 0.046012
    length 8.70632
    axis -9.91835 -0.06569 -0.177794 xyz
    dof rx ry rz
  end
  begin
    id 15
    name LeftHand
    direction 0 0 0
    length 0
    axis 0 0 0 xyz
    dof rx ry rz
  end
  begin
    id 16
    name RightShoulderDummy
    direction -0.998891 -0.0402509 -0.0244414
    length 3.5433
    axis -0.001389 0.000121451 1.30017e-006 xyz
  end
  begin
    id 17
    name RightShoulder
    direction -0.99951 -0.000327807 0.0313133
    length 4.05031
    axis 0.215806 0.000203643 -0.0068026 xyz
    dof rx ry rz
  end
  begin
    id 18
    name RightArm
    direction -0.998573 -0.000999564 -0.053403
    length 10.3947
    axis -23.2009 -0.134239 -0.964101 xyz
    dof rx ry rz
  end
  begin
    id 19
    name RightForeArm
    direction -0.998898 0.00868028 0.0461306
    length 8.68355
    axis -9.92322 0.0658061 0.178868 xyz
    dof rx ry rz
  end
  begin
    id 20
    name RightHand
    direction 0 0 0
    length 0
    axis 0 0 0 xyz
    dof rx ry rz
  end
  begin
    id 21
    name LeftUpLegDummy
    direction 0.718183 -0.695806 0.00816078
    length 4.904
    axis 0 0 0 xyz
  end
  begin
    id 22
    name LeftUpLeg
    direction -6.81752e-006 -0.995793 0.0916337
    length 17.4976
    axis -3.48766 0.00143442 -0.000524262 xyz
    dof rx ry rz
  end
  begin
    id 23
    name LeftLeg
    direction -0.00601358 -0.995091 -0.0987824
    length 16.5821
    axis 3.68178 -0.00654042 -0.000285133 xyz
    dof rx ry rz
  end
  begin
    id 24
    name LeftFoot
    direction -0.00417578 -0.460984 0.887399
    length 3.77069
    axis 1.87233e-006 4.66016e-005 -8.6538e-006 xyz
    dof rx ry rz
  end
  begin
    id 25
    name LeftToes
    direction 0 0 0
    length 0
    axis 0 0 0 xyz
    dof rx ry rz
  end
:hierarchy
  begin
    root RightUpLegDummy SpineDummy LeftUpLegDummy
    RightUpLegDummy RightUpLeg
    RightUpLeg RightLeg
    RightLeg RightFoot
    RightFoot RightToes
    SpineDummy Spine
    Spine Spine1
    Spine1 HEadDummy LeftShoulder1Dummy RightShoulderDummy
    HEadDummy HEad
    LeftShoulder1Dummy LeftShoulder1
    LeftShoulder1 LeftArm
    LeftArm LeftForeArm
    LeftForeArm LeftHand
    RightShoulderDummy RightShoulder
    RightShoulder RightArm
    RightArm RightForeArm
    RightForeArm RightHand
    LeftUpLegDummy LeftUpLeg
    LeftUpLeg LeftLeg
    LeftLeg LeftFoot
    LeftFoot LeftToes
  end

:SAMPLES-PER-SECOND 30
:FULLY-SPECIFIED
:DEGREES
159
root  -3.50562 40.3852 -3.33174 -8.60887 -85.6078 6.78251
RightUpLeg  -8.55847 -11.2628 -4.63309
RightLeg  13.8016 -13.6823 2.92419
RightFoot  -1.96425 0.27637 -3.52828
RightToes  0.000481921 0.542163 -0.142578
Spine  -0.472815 -3.05872 5.05658
Spine1  16.708 -4.23354 4.67524
HEad  36.2555 -11.1679 4.44758
LeftShoulder1  9.81108 -13.5217 -50.3062
LeftArm  -3.45054 19.4091 -22.4215
LeftForeArm  37.4277 -13.6201 -5.43431
LeftHand  -0.25398 0.0180481 5.50724
RightShoulder  4.81494 7.99054 35.9094
RightArm  0.765425 -3.87632 33.0294
RightForeArm  8.38476 14.9287 6.57289
RightHand  -1.18839 3.85602 -15.1647
LeftUpLeg  0.660886 7.49451 7.6821
LeftLeg  33.757 7.76201 5.88433
LeftFoot  -1.28409 0.617585 -6.90466
LeftToes  1.06246e-005 4.65868e-005 -8.65513e-006
160
root  -4.00432 40.3846 -3.66921 -8.62667 -84.4797 6.31115
RightUpLeg  -7.4242 -11.467 -4.49741
RightLeg  14.6301 -14.5116 2.56833
RightFoot  -3.22118 0.230891 -3.55713
RightToes  0.000481921 0.542163 -0.142578
Spine  -0.0559233 -2.78722 5.60061
Spine1  16.7768 -3.66231 4.16047
HEad  36.0321 -11.804 4.29904
LeftShoulder1  9.6695 -13.4304 -49.8511
LeftArm  -3.53971 21.1483 -22.7039
LeftForeArm  35.2449 -15.4035 -4.80557
LeftHand  -0.25398 0.0180481 5.50724
RightShoulder  4.86668 8.05335 36.1246
RightArm  1.87221 -1.19114 31.8358
RightForeArm  9.14484 14.3472 6.89801
RightHand  -1.12711 3.52644 -14.9105
LeftUpLeg  -1.66548 5.74774 7.21067
LeftLeg  37.2872 7.81499 6.69206
LeftFoot  -2.16983 0.505364 -6.1444
LeftToes  1.06246e-005 4.65868e-005 -8.65513e-006
161
root  -4.48911 40.4075 -3.97646 -11.0278 -83.6964 8.32997
RightUpLeg  -6.28194 -11.8202 -4.58593
RightLeg  15.1114 -14.8259 2.38108
RightFoot  -4.38509 0.18174 -3.47304
RightToes  0.000481921 0.542163 -0.142578
Spine  0.247109 -2.32745 6.02443
Spine1  16.6821 -2.86771 3.42779
HEad  36.2872 -12.2731 3.8977
LeftShoulder1  9.5633 -13.359 -49.5135
LeftArm  -3.81073 22.5536 -23.1105
LeftForeArm  32.9233 -17.1176 -4.25492
LeftHand  -0.25398 0.0180481 5.50724
RightShoulder  4.86455 8.01861 36.2302
RightArm  1.99131 1.27861 30.7531
RightForeArm  10.7433 13.6001 7.15208
RightHand  -1.11886 3.6193 -14.6607
LeftUpLeg  -3.63485 4.67002 6.40054
LeftLeg  38.8543 7.54323 6.83364
LeftFoot  -3.18525 0.474118 -6.38075
LeftToes  1.06246e-005 4.65868e-005 -8.65513e-006
162
root  -4.95344 40.4354 -4.2455 -13.7961 -83.1729 10.8684
RightUpLeg  -5.30835 -12.1163 -4.74941
RightLeg  15.4258 -14.8462 2.26232
RightFoot  -5.3315 0.132325 -3.20591
RightToes  0.000481921 0.542163 -0.142578
Spine  0.398928 -1.7878 6.57531
Spine1  16.5897 -1.96114 2.47426
HEad  36.7221 -12.3745 3.29264
LeftShoulder1  9.52293 -13.3195 -49.4202
LeftArm  -3.86709 23.6707 -23.4149
LeftForeArm  31.3351 -19.0817 -3.76991
LeftHand  -0.25398 0.0180481 5.50724
RightShoulder  4.80825 7.93405 36.0541
RightArm  1.02487 3.41247 30.1328
RightForeArm  11.7836 12.8658 7.29577
RightHand  -1.14202 3.80983 -14.6616
LeftUpLeg  -5.38497 4.27755 5.43317
LeftLeg  38.777 7.5616 6.83012
LeftFoot  -3.82352 0.458737 -6.62692
LeftToes  1.06246e-005 4.65868e-005 -8.65513e-006
163
root  -5.39738 40.4688 -4.47598 -16.1474 -82.7722 13.092
RightUpLeg  -4.40991 -12.3139 -4.92864
RightLeg  15.5097 -14.8119 2.24198
RightFoot  -5.96732 0.0983131 -2.95542
RightToes  0.000481921 0.542163 -0.142578
Spine  0.420356 -1.27439 7.24937
Spine1  16.59 -1.07599 1.34737
HEad  37.0055 -12.1649 2.5038
LeftShoulder1  9.5255 -13.2993 -49.4925
LeftArm  -4.13289 24.5325 -23.6284
LeftForeArm  31.0165 -21.3663 -3.41013
LeftHand  -0.25398 0.0180481 5.50724
RightShoulder  4.72631 7.85486 35.6354
RightArm  -0.373866 5.20739 29.9667
RightForeArm  11.6267 12.4255 7.31143
RightHand  -1.1372 3.71427 -14.7468
LeftUpLeg  -6.90994 4.53249 4.4536
LeftLeg  37.335 8.02668 6.87457
LeftFoot  -4.22573 0.440666 -6.67698
LeftToes  1.06246e-005 4.65868e-005 -8.65513e-006
164
root  -5.81909 40.5033 -4.6715 -18.0116 -82.4419 14.8692
RightUpLeg  -3.48386 -12.5717 -5.12959
RightLeg  15.386 -14.7362 2.36198
RightFoot  -6.53003 0.0769191 -2.88288
RightToes  0.000481921 0.542163 -0.142578
Spine  0.443183 -0.828256 7.98435
Spine1  16.5542 -0.242918 0.0542642
HEad  37.0587 -11.7637 1.60198
LeftShoulder1  9.54426 -13.3086 -49.5625
LeftArm  -5.2 25.2009 -23.8559
LeftForeArm  32.0517 -23.6424 -3.39681
LeftHand  -0.25398 0.0180481 5.50724
RightShoulder  4.65733 7.80093 35.2319
RightArm  -1.42434 6.69227 29.9631
RightForeArm  10.6956 12.4201 7.24372
RightHand  -1.12582 3.55076 -14.8553
LeftUpLeg  -8.18785 5.37048 3.53416
LeftLeg  34.7005 8.46231 6.60056
LeftFoot  -4.38729 0.455719 -7.06109
LeftToes  1.06246e-005 4.65868e-005 -8.65513e-006
165
root  -6.21583 40.5279 -4.84028 -19.447 -82.152 16.2209
RightUpLeg  -2.55856 -12.792 -5.3109
RightLeg  15.2052 -14.7419 2.50792
RightFoot  -7.18 0.0555998 -2.86507
RightToes  0.000481921 0.542163 -0.142578
Spine  0.579693 -0.481505 8.63464
Spine1  16.3772 0.474363 -1.21747
HEad  36.9911 -11.0994 0.728653
LeftShoulder1  9.56149 -13.3383 -49.5645
LeftArm  -6.6948 25.7248 -24.1608
LeftForeArm  33.6766 -25.6147 -3.70766
LeftHand  -0.25398 0.0180481 5.50724
RightShoulder  4.62663 7.78615 35.0176
RightArm  -1.87508 7.99961 29.9554
RightForeArm  9.5934 12.6571 7.18133
RightHand  -1.15189 3.59016 -15.1249
LeftUpLeg  -9.24159 6.66202 2.68781
LeftLeg  31.1327 8.27622 5.70298
LeftFoot  -4.17947 0.51855 -7.87494
LeftToes  1.06246e-005 4.65868e-005 -8.65513e-006
166
root  -6.59131 40.5435 -4.98955 -20.4219 -81.8479 17.1389
RightUpLeg  -1.70288 -12.7384 -5.41235
RightLeg  14.9935 -15.0399 2.56431
RightFoot  -7.7871 0.0317845 -2.7197
RightToes  0.000481921 0.542163 -0.142578
Spine  0.744636 -0.249891 9.01757
Spine1  16.1612 0.978909 -2.21025
HEad  36.8981 -10.1011 -0.0672731
LeftShoulder1  9.57089 -13.3558 -49.5618
LeftArm  -7.70771 26.0443 -24.5085
LeftForeArm  34.8979 -27.2176 -3.99088
LeftHand  -0.25398 0.0180481 5.50724
RightShoulder  4.62889 7.81635 34.9297
RightArm  -1.87289 9.23304 30.031
RightForeArm  8.55376 12.9582 7.14913
RightHand  -1.19081 3.6704 -15.4903
LeftUpLeg  -10.1735 8.16467 1.85646
LeftLeg  27.0378 7.33394 4.38103
LeftFoot  -3.75021 0.591161 -8.56309
LeftToes  1.06246e-005 4.65868e-005 -8.65513e-006
167
root  -6.95436 40.5619 -5.11866 -21.0737 -81.5249 17.8098
RightUpLeg  -0.91091 -12.4977 -5.45972
RightLeg  14.636 -15.5271 2.5935
RightFoot  -8.24671 0.0119076 -2.50619
RightToes  0.000481921 0.542163 -0.142578
Spine  0.796698 -0.0846754 9.12953
Spine1  16.0325 1.31512 -2.94938
HEad  36.8485 -8.9479 -0.874888
LeftShoulder1  9.5745 -13.358 -49.5739
LeftArm  -8.21631 26.0636 -24.8008
LeftForeArm  35.8544 -28.4111 -4.2014
LeftHand  -0.25398 0.0180481 5.50724
RightShoulder  4.64419 7.86569 34.8876
RightArm  -1.47645 10.2589 30.272
RightForeArm  7.59471 13.4564 7.0754
RightHand  -1.20194 3.63547 -15.6873
LeftUpLeg  -11.0884 9.65079 0.971344
LeftLeg  22.749 5.9127 3.03897
LeftFoot  -3.19554 0.648824 -8.83328
LeftToes  1.06246e-005 4.65868e-005 -8.65513e-006
168
root  -7.31322 40.5865 -5.22439 -21.7783 -81.2706 18.5789
RightUpLeg  -0.100473 -12.285 -5.52602
RightLeg  14.097 -15.9229 2.70392
RightFoot  -8.63453 -0.00128773 -2.41943
RightToes  0.000481921 0.542163 -0.142578
Spine  0.79344 0.0823551 9.11857
Spine1  15.9507 1.63102 -3.63582
HEad  36.9051 -7.86347 -1.74042
LeftShoulder1  9.56928 -13.3662 -49.5231
LeftArm  -8.34543 25.8032 -25.0117
LeftForeArm  36.7192 -29.1677 -4.32412
LeftHand  -0.25398 0.0180481 5.50724
RightShoulder  4.66425 7.90452 34.9239
RightArm  -0.604609 10.8559 30.6628
RightForeArm  6.64542 14.3082 6.89467
RightHand  -1.20979 3.68458 -15.7057
LeftUpLeg  -11.9364 11.2165 0.0330001
LeftLeg  18.4216 4.13287 1.8914
LeftFoot  -2.34613 0.721534 -8.98
LeftToes  1.06246e-005 4.65868e-005 -8.65513e-006
169
root  -7.67458 40.6105 -5.30628 -22.7822 -81.191 19.6096
RightUpLeg  0.772264 -12.0611 -5.60077
RightLeg  13.4816 -16.1604 2.85599
RightFoot  -9.00795 -0.0107656 -2.46441
RightToes  0.000481921 0.542163 -0.142578
Spine  0.876657 0.26471 9.05607
Spine1  15.8437 1.97137 -4.27975
HEad  37.0527 -6.83093 -2.61951
LeftShoulder1  9.55202 -13.3745 -49.4098
LeftArm  -8.26454 25.3992 -25.1365
LeftForeArm  37.4603 -29.5693 -4.37549
LeftHand  -0.25398 0.0180481 5.50724
RightShoulder  4.68896 7.94099 35.0082
RightArm  0.672476 11.0114 31.2771
RightForeArm  5.57739 15.3573 6.64633
RightHand  -1.25276 3.95832 -15.7946
LeftUpLeg  -12.558 12.4933 -0.69252
LeftLeg  14.2429 2.42162 0.800591
LeftFoot  -1.3347 0.822256 -9.28637
LeftToes  1.06246e-005 4.65868e-005 -8.65513e-006
170
root  -8.0448 40.6302 -5.36011 -23.9749 -81.3307 20.8101
RightUpLeg  1.63837 -11.7368 -5.61376
RightLeg  12.8713 -16.2886 2.9564
RightFoot  -9.32208 -0.0200279 -2.44427
RightToes  0.000481921 0.542163 -0.142578
Spine  0.991997 0.434762 8.94233
Spine1  15.7588 2.27824 -4.7913
HEad  37.2359 -5.73305 -3.53382
LeftShoulder1  9.53261 -13.3588 -49.3553
LeftArm  -8.17161 25.0052 -25.1181
LeftForeArm  37.9632 -29.7772 -4.39614
LeftHand  -0.25398 0.0180481 5.50724
RightShoulder  4.71766 8.0058 35.0268
RightArm  2.12058 10.8648 32.2387
RightForeArm  4.54661 16.3221 6.41043
RightHand  -1.29621 4.20615 -15.9267
LeftUpLeg  -12.8726 11.2665 -0.473377
LeftLeg  10.4581 2.9253 -0.707761
LeftFoot  -0.632637 0.902149 -9.5717
LeftToes  1.06246e-005 4.65868e-005 -8.65513e-006
171
root  -8.43007 40.6457 -5.37799 -25.2234 -81.6536 22.1361
RightUpLeg  2.40377 -11.4218 -5.57988
RightLeg  12.3091 -16.2634 3.00878
RightFoot  -9.58839 -0.0317058 -2.26701
RightToes  0.000481921 0.542163 -0.142578
Spine  0.992867 0.571698 8.82035
Spine1  15.7367 2.53855 -5.25439
HEad  37.4974 -4.60107 -4.56409
LeftShoulder1  9.51577 -13.3179 -49.3876
LeftArm  -8.16266 24.7269 -24.9155
LeftForeArm  38.1399 -29.8647 -4.40666
LeftHand  -0.25398 0.0180481 5.50724
RightShoulder  4.76289 8.10904 35.0514
RightArm  3.54041 10.4689 33.4389
RightForeArm  4.12971 17.0916 6.19653
RightHand  -1.27292 4.15124 -15.7327
LeftUpLeg  -13.1276 8.27852 0.418133
LeftLeg  7.12043 4.99532 -2.306
LeftFoot  -0.287024 0.926386 -9.5415
LeftToes  1.06246e-005 4.65868e-005 -8.65513e-006
